<?xml version="1.0" standalone="no"?>
<!DOCTYPE svg PUBLIC "-//W3C//DTD SVG 1.1//EN" "http://www.w3.org/Graphics/SVG/1.1/DTD/svg11.dtd" >
<svg xmlns="http://www.w3.org/2000/svg">
<metadata>Generated by IcoMoon</metadata>
<defs>
<font id="icomoon" horiz-adv-x="1024">
<font-face units-per-em="1024" ascent="960" descent="-64" />
<missing-glyph horiz-adv-x="1024" />
<glyph unicode="&#x20;" d="" horiz-adv-x="512" />
<glyph unicode="&#xe600;" d="M678.717 166.441v517.489l-333.455 89.938v-607.427h-31.831v-44.308h397.097v44.308h-31.811zM492.764 627.092h38.477v-54.497h-38.477v54.497zM492.764 533.755h38.477v-54.523h-38.477v54.523zM492.764 440.402h38.477v-54.518h-38.477v54.518zM492.764 347.039h38.477v-54.502h-38.477v54.502zM451.953 199.168h-38.482v54.528h38.482v-54.528zM451.953 292.541h-38.482v54.502h38.482v-54.502zM451.953 385.879h-38.482v54.518h38.482v-54.518zM451.953 479.232h-38.482v54.523h38.482v-54.523zM451.953 572.59h-38.482v54.502h38.482v-54.502zM542.065 145.603h-60.124v112.102h60.124v-112.102zM610.673 199.168h-38.477v54.528h38.477v-54.528zM610.673 292.541h-38.477v54.502h38.477v-54.502zM610.673 385.879h-38.477v54.518h38.477v-54.518zM610.673 479.232h-38.477v54.523h38.477v-54.523zM610.673 572.59h-38.477v54.502h38.477v-54.502zM269.107 146.908v289.28l-186.404 50.273v-339.553h-17.782v-24.781h221.978v24.781h-17.792zM165.156 404.398h21.504v-30.459h-21.504v30.459zM165.156 352.241h21.504v-30.479h-21.504v30.479zM165.156 300.052h21.504v-30.469h-21.504v30.469zM165.156 247.849h21.504v-30.459h-21.504v30.459zM142.346 165.202h-21.504v30.479h21.504v-30.479zM142.346 217.39h-21.504v30.459h21.504v-30.459zM142.346 269.558h-21.504v30.49h21.504v-30.49zM142.346 321.761h-21.504v30.479h21.504v-30.479zM142.346 373.939h-21.504v30.459h21.504v-30.459zM192.712 135.25h-33.608v62.669h33.608v-62.669zM231.071 165.202h-21.504v30.479h21.504v-30.479zM231.071 217.39h-21.504v30.459h21.504v-30.459zM231.071 269.558h-21.504v30.49h21.504v-30.49zM231.071 321.761h-21.504v30.479h21.504v-30.479zM231.071 373.939h-21.504v30.459h21.504v-30.459zM941.261 146.908v289.28l-186.373 50.273v-339.553h-17.797v-24.781h221.988v24.781h-17.818zM837.32 404.398h21.519v-30.459h-21.519v30.459zM837.32 352.241h21.519v-30.479h-21.519v30.479zM837.32 300.052h21.519v-30.469h-21.519v30.469zM837.32 247.849h21.519v-30.459h-21.519v30.459zM814.51 165.202h-21.499v30.479h21.499v-30.479zM814.51 217.39h-21.499v30.459h21.499v-30.459zM814.51 269.558h-21.499v30.49h21.499v-30.49zM814.51 321.761h-21.499v30.479h21.499v-30.479zM814.51 373.939h-21.499v30.459h21.499v-30.459zM864.891 135.25h-33.618v62.669h33.618v-62.669zM903.245 165.202h-21.519v30.479h21.519v-30.479zM903.245 217.39h-21.519v30.459h21.519v-30.459zM903.245 269.558h-21.519v30.49h21.519v-30.49zM903.245 321.761h-21.519v30.479h21.519v-30.479zM903.245 373.939h-21.519v30.459h21.519v-30.459z" />
<glyph unicode="&#xe601;" d="M977.167 430.484l-7.931 35.461c-0.973 4.347-5.386 6.989-9.554 6.072l-19.968-4.47c-8.617 20.352-21.233 38.108-36.956 52.429l10.854 17.28c2.376 3.732 1.372 8.719-2.304 11.172l-30.756 19.287c-3.784 2.34-8.724 1.285-11.121-2.437l-10.982-17.388c-19.686 8.095-41.032 12.052-63.165 11.064l-4.47 20.009c-1.009 4.26-5.258 6.927-9.59 6.036l-35.364-8.008c-4.367-0.998-7.050-5.279-6.129-9.559l4.449-19.958c-20.239-8.504-38.124-21.253-52.347-37.007l-17.393 11.003c-3.64 2.345-8.545 1.213-11.013-2.493l-19.492-30.679c-2.34-3.707-1.183-8.637 2.545-11.028l17.29-10.988c-8.079-19.625-11.95-41.108-10.89-63.145l-20.009-4.49c-4.311-1.044-6.994-5.289-6.093-9.672l7.972-35.384c0.901-4.234 5.263-6.958 9.482-6.057l20.086 4.465c8.617-20.383 21.248-38.083 36.951-52.454l-10.962-17.285c-2.396-3.717-1.188-8.653 2.524-10.926l30.628-19.574c3.779-2.268 8.637-1.157 11.085 2.575l10.921 17.29c19.651-8.074 41.17-12.027 63.268-10.962l4.383-19.983c1.096-4.321 5.371-7.030 9.549-6.057l35.528 7.972c4.239 0.998 6.994 5.233 6.062 9.636l-4.511 19.968c20.372 8.407 38.144 21.181 52.46 36.808l17.357-10.885c3.697-2.345 8.561-1.3 10.977 2.437l19.471 30.618c2.35 3.789 1.3 8.765-2.591 11.182l-17.311 10.849c8.253 19.722 12.012 41.226 10.941 63.201l20.050 4.536c4.342 0.993 7.040 5.294 6.067 9.539zM823.695 313.441c-53.146-12.027-106.209 21.545-118.159 74.685-11.914 53.197 21.596 106.102 74.788 118.113 53.176 11.904 106.168-21.519 118.001-74.788 12.042-53.304-21.489-106.117-74.629-118.011zM566.861 629.299l12.524 2.678c5.32-12.626 13.158-23.741 22.948-32.655l-6.851-10.778c-1.459-2.289-0.727-5.412 1.638-6.886l19.103-12.14c2.289-1.475 5.284-0.809 6.943 1.551l6.851 10.813c12.109-5.094 25.574-7.501 39.332-6.81l2.847-12.493c0.543-2.693 3.287-4.378 6.026-3.804l21.99 4.987c2.775 0.589 4.398 3.282 3.825 5.955l-2.852 12.488c12.795 5.35 23.864 13.261 32.804 23.086l10.726-6.866c2.289-1.495 5.612-0.794 6.835 1.551l12.073 19.108c1.48 2.304 0.829 5.304-1.372 6.922l-10.921 6.804c5.115 12.242 7.501 25.641 6.922 39.465l12.329 2.698c2.831 0.722 4.541 3.395 3.784 6.001l-4.884 22.077c-0.666 2.729-3.333 4.424-5.862 3.82l-12.636-2.806c-5.335 12.769-13.251 23.736-22.876 32.748l6.758 10.762c1.444 2.345 0.686 5.443-1.618 6.938l-19.185 12.088c-2.104 1.459-5.315 0.788-6.774-1.531l-6.902-10.798c-12.191 5.018-25.692 7.378-39.424 6.83l-2.76 12.385c-0.758 2.831-3.261 4.434-5.985 3.876l-22.19-5.018c-2.575-0.497-4.234-3.21-3.604-5.903l2.719-12.447c-12.739-5.274-23.757-13.286-32.717-23.076l-10.778 6.851c-2.309 1.536-5.391 0.742-6.83-1.516l-12.186-19.215c-1.377-2.289-0.686-5.371 1.587-6.907l10.747-6.856c-4.997-12.206-7.388-25.626-6.815-39.414l-12.477-2.77c-2.703-0.573-4.332-3.272-3.748-5.908l4.925-22.108c0.64-2.719 3.379-4.362 6.011-3.779zM651.725 728.202c33.224 7.48 66.156-13.409 73.615-46.623 7.429-33.183-13.409-66.186-46.577-73.585-33.275-7.501-66.278 13.368-73.656 46.638-7.455 33.162 13.302 66.15 46.618 73.569zM626.022 416.973c7.265 1.213 11.935 8.084 10.747 15.319l-10.097 60.032c-1.229 7.327-7.936 12.257-15.14 11.054l-33.966-5.683c-12.401 34.908-32.087 65.787-57.103 91.187l19.922 27.93c4.234 6.011 2.939 14.505-3.174 18.775l-49.49 35.159c-5.99 4.372-14.464 2.995-18.55-3.098l-20.045-27.935c-32.215 15.345-67.692 23.849-104.832 24.187l-5.658 33.818c-1.234 7.363-8.084 12.273-15.452 11.039l-59.919-10.061c-7.311-1.224-12.401-8.131-11.167-15.508l5.688-33.802c-34.801-12.385-65.623-32.005-91.003-57.021l-27.986 19.886c-6.057 4.372-14.495 2.975-18.642-3.046l-35.369-49.49c-4.342-6.042-2.903-14.495 3.139-18.765l28.022-19.907c-15.462-32.195-23.885-67.82-24.202-104.827l-33.869-5.688c-7.311-1.234-12.278-8.125-11.059-15.452l10.076-60.006c1.198-7.25 8.156-12.191 15.468-10.947l33.889 5.678c12.355-34.898 31.939-65.746 57.062-91.116l-19.973-28.052c-4.337-6.088-2.939-14.418 3.133-18.637l49.403-35.369c6.067-4.25 14.484-2.852 18.801 3.174l19.953 27.863c32.159-15.252 67.686-23.685 104.607-24.044l5.688-33.889c1.219-7.281 8.294-12.262 15.616-11.028l59.955 10.056c7.332 1.229 12.216 8.187 10.982 15.503l-5.688 33.853c34.98 12.442 65.751 31.939 91.213 56.924l28.052-19.866c5.821-4.296 14.29-2.847 18.565 3.133l35.261 49.546c4.378 5.949 2.97 14.351-3.139 18.673l-27.919 19.953c15.36 32.138 23.9 67.738 24.212 104.771l33.987 5.724zM374.917 216.883c-108.759-18.212-211.835 55.137-230.047 163.876-18.243 108.687 55.265 211.625 164.019 229.873 108.687 18.232 211.574-55.127 229.816-163.825 18.237-108.723-55.066-211.676-163.789-229.924zM482.693 399.59l-16.522 4.403c1.403 18.401-1.234 36.46-7.434 53.069l14.807 8.73c3.205 1.715 4.183 5.888 2.432 9.139l-15.34 26.086c-1.956 3.226-5.96 4.285-9.155 2.381l-14.802-8.658c-11.535 13.588-25.994 24.622-42.711 32.287l4.337 16.609c0.865 3.533-1.219 7.219-4.823 8.131l-29.404 7.613c-3.574 0.952-7.219-1.193-8.192-4.741l-4.229-16.486c-18.365 1.372-36.475-1.29-52.997-7.455l-8.771 14.689c-1.92 3.195-5.939 4.25-9.042 2.365l-26.22-15.288c-3.19-1.935-4.316-5.99-2.36-9.185l8.678-14.715c-13.609-11.556-24.658-25.999-32.287-42.772l-16.558 4.229c-3.64 0.998-7.219-1.198-8.274-4.608l-7.547-29.389c-0.963-3.64 1.178-7.183 4.741-8.202l16.666-4.244c-1.623-18.442 1.091-36.516 7.306-53.125l-14.853-8.684c-3.082-1.823-4.229-5.985-2.36-9.124l15.375-26.132c1.838-3.226 6.011-4.275 9.149-2.417l14.735 8.796c11.535-13.537 25.964-24.73 42.767-32.41l-4.265-16.497c-0.911-3.589 1.219-7.301 4.726-8.207l29.44-7.639c3.594-0.901 7.142 1.172 8.084 4.849l4.301 16.476c18.268-1.444 36.419 1.265 53.105 7.429l8.561-14.802c1.848-3.139 6.036-4.234 9.247-2.345l26.122 15.324c3.154 1.889 4.244 5.98 2.36 9.19l-8.617 14.689c13.455 11.535 24.586 25.974 32.317 42.844l16.486-4.357c3.543-0.942 7.173 1.172 8.264 4.777l7.624 29.302c0.855 3.599-1.167 7.224-4.869 8.074zM438.098 388.654c-13.88-53.079-68.014-84.966-121.236-71.142-53.12 13.824-85.018 68.101-71.142 121.313 13.763 53.13 68.045 84.977 121.283 71.199 53.069-13.844 84.961-68.163 71.096-121.37zM795.105 450.55c-20.966-3.528-35.077-23.398-31.585-44.411 3.523-21.043 23.398-35.123 44.344-31.621 21.089 3.523 35.118 23.327 31.636 44.334-3.512 21.028-23.306 35.246-44.396 31.698z" />
<glyph unicode="&#xe602;" d="M184.013 570.209c0.302-1.101 0.727-2.406 1.26-3.871-1.894 7.086-5.268 19.077-1.26 3.871zM379.566 369.5c1.469-0.466 2.852-0.85 4.009-1.147 14.152-3.261 2.36-0.338-4.009 1.147zM151.24 393.554c-0.307-1.132-0.691-2.458-1.178-3.922-1.219-5.1-1.772-7.68 1.178 3.922zM311.414 553.4c-1.423-0.599-2.744-1.096-3.763-1.459 11.331 3.886 8.76 3.092 3.763 1.459zM351.621 298.819c45.338-21.519 81.275 58.168 31.933 69.56-10.214 2.586-8.34 2.156-4.009 1.147-5.038 1.541-11.873 3.86-18.995 5.688 26.875 24.632 53.734 46.966 80.589 69.274-22.313 26.88-44.652 53.74-69.243 80.579-2.074-16.143-7.296-32.85-15.862-41.252-44.314-43.418-106.598 49.326-48.41 68.101-14.925-4.818-3.195-0.85 3.768 1.454 5.888 2.432 14.838 6.502 24.044 9.549-21.949 21.658-46.013 43.31-73.472 64.968-22.272-29.204-44.524-58.419-68.275-86.139-2.601 9.298-6.287 18.386-8.438 24.576 1.341-5.048 2.012-7.608-1.26 3.881-16.005 60.989-115.251-1.347-68.828-46.51 6.651-6.456 27.11-14.833 45.763-17.884-25.083-25.708-52.301-49.239-83.149-69.135 19.845-25.503 41.651-49.019 64.696-71.332 2.299 9.175 5.652 18.12 7.567 24.284 1.725 7.117 4.736 19.18 1.178 3.922 14.295 61.384 115.22 1.874 70.118-44.575-5.985-6.17-23.788-14.295-41.114-18.284 25.344-22.216 51.666-43.489 78.121-64.594 22.892 28.954 45.809 54.205 68.726 77.117 3.108-17.807 10.225-37.586 24.55-44.396zM377.917 622.218c1.039 0.364 2.324 0.855 3.799 1.459-6.989-2.314-18.688-6.267-3.799-1.459zM623.908 638.566c-0.461 1.495-0.87 2.821-1.142 3.907 2.893-11.597 2.355-8.991 1.142-3.907zM445.235 806.303c-1.341 0.282-2.924 0.635-4.567 1.039-3.963 0.748-5.284 0.937 4.567-1.039zM576.553 821.74c0.476 1.464 0.876 2.785 1.183 3.917 3.543 15.263 0.543 3.22-1.183-3.917zM381.716 623.693c4.966 1.644 7.547 2.427-3.799-1.454-58.189-18.801 4.091-111.539 48.41-68.122 8.566 8.397 13.768 25.114 15.887 41.247 24.591-26.854 46.915-53.714 69.233-80.579 25.723 21.407 51.476 42.829 77.204 66.217-18.739 4.413-37.432 13.696-43.341 28.349-20.019 49.613 65.152 86.554 77.481 33.142-3.538 15.278-0.538 3.267 1.121-3.901 1.48-4.685 3.809-11.228 5.791-18.309 21.652 21.908 43.269 45.942 64.901 73.349-28.498 22.917-56.929 45.896-84.219 70.042 16.108 4.239 31.892 11.679 37.468 17.393 45.128 46.449-55.828 105.979-70.108 44.564-2.934-11.576-2.35-8.996-1.162-3.912-1.669-5.268-4.332-12.626-6.559-20.378-24.212 23.982-46.858 49.469-67.092 77.394-28.641-19.794-54.072-42.737-77.706-67.548 5.617-1.28 10.988-2.724 15.468-3.84 6.298-1.167 19.338-3.727 4.572-1.039 47.043-8.545 21.806-81.275-21.898-72.96-19.18 3.645-26.685 23.066-31.242 40.704-20.649-24.55-40.269-50.196-59.812-75.832 27.453-21.678 51.517-43.336 73.457-64.973-9.242-3.077-18.145-7.148-24.054-9.554zM392.75 115.855c1.050 0.348 2.335 0.85 3.779 1.428-6.994-2.289-18.693-6.241-3.779-1.428zM453.806 298.097c-1.137 0.292-2.478 0.666-3.988 1.126-4.306 1.039-6.18 1.413 3.988-1.126zM653.839 275.866c45.128 46.459-55.818 105.979-70.103 44.59-2.954-11.576-2.376-9.001-1.167-3.937-1.541-4.813-3.912-11.351-5.97-18.345-22.958 25.334-44.068 50.678-65.157 76.042-26.865-22.308-53.74-44.692-80.604-69.268 7.122-1.828 13.947-4.147 18.995-5.724 6.42-1.48 18.207-4.413 3.988-1.126 49.398-11.366 13.466-91.069-31.892-69.545-14.321 6.804-21.458 26.563-24.55 44.355-22.897-22.897-45.783-48.164-68.721-77.117 29.266-23.342 58.675-46.531 87.178-70.589-7.455-2.749-14.428-5.888-19.287-7.916 4.966 1.669 7.547 2.458-3.768-1.428-58.199-18.801 4.091-111.555 48.41-68.091 8.545 8.392 13.768 25.062 15.852 41.19 24.34-22.497 47.514-46.121 68.787-71.685 25.81 17.423 49.080 37.463 70.692 59.095-15.821 4.285-31.181 11.617-36.639 17.28-45.041 46.582 56.038 105.846 70.2 44.416-3.548 15.324-0.548 3.21 1.121-3.912 1.27-3.994 3.098-9.16 4.869-14.761 19.379 22.717 37.76 46.438 56.028 70.313-29.061 22.794-54.339 45.609-77.271 68.383 16.62 4.142 33.27 11.873 39.009 17.782zM631.199 134.103c-0.481 1.5-0.86 2.811-1.172 3.942 2.913-11.602 2.376-9.021 1.172-3.942zM582.569 316.518c0.461 1.469 0.876 2.806 1.167 3.937 3.512 15.273 0.563 3.2-1.167-3.937zM654.008 390.733c-0.292-1.126-0.671-2.447-1.172-3.927-1.198-5.059-1.756-7.66 1.172 3.927zM820.582 563.84c-1.408-0.594-2.729-1.116-3.748-1.469 11.325 3.896 8.745 3.113 3.748 1.469zM693.059 572.196c0.292-1.070 0.671-2.391 1.162-3.901-1.7 7.137-4.659 19.159-1.162 3.901zM880.778 384.686c1.618-0.497 3.159-0.911 4.511-1.275 14.643-3.359 1.69-0.195-4.511 1.275zM885.289 383.432c-9.728 2.447-8.428 2.196-4.511 1.28-3.881 1.147-8.412 2.627-13.179 3.973 23.849 24.873 49.628 47.877 78.618 67.62-20.562 25.083-42.998 48.261-66.611 70.272-2.621-13.082-7.388-25.446-14.382-32.292-44.278-43.443-106.619 49.321-48.399 68.106-14.92-4.797-3.2-0.835 3.748 1.469 3.118 1.28 7.030 3.005 11.392 4.803-22.052 18.565-44.57 36.613-67.098 54.712-21.642-27.412-43.249-51.436-64.901-73.344-1.992 7.081-4.28 13.614-5.791 18.309 1.229-5.089 1.802-7.69-1.121 3.901-12.319 53.417-97.5 16.476-77.496-33.152 5.914-14.664 24.627-23.956 43.336-28.37-25.718-23.378-51.451-44.79-77.204-66.186 21.11-25.318 42.173-50.662 65.157-76.027 2.079 7.014 4.449 13.563 5.97 18.345 1.731 7.122 4.731 19.215 1.188 3.932 14.28 61.394 115.22 1.869 70.108-44.559-5.77-5.908-22.42-13.655-39.050-17.812 22.922-22.815 48.21-45.588 77.271-68.403 22.81 29.87 45.42 59.971 69.478 88.637 3.948-16.323 10.972-32.937 28.18-37.012 43.29-10.46 71.91 61.041 25.298 71.798z" />
<glyph unicode="&#xe603;" d="M903.465 633.8h-794.563c-11.74 0-21.274-9.539-21.274-21.268v-444.769c0-11.75 9.533-21.279 21.274-21.279h794.563c11.704 0 21.268 9.528 21.268 21.279v444.785c-0.036 11.715-9.564 21.253-21.268 21.253zM430.761 628.562h150.799c4.157 0 7.511-3.364 7.511-7.491 0-4.142-3.348-7.506-7.511-7.506h-150.799c-4.147 0-7.511 3.364-7.511 7.506 0.005 4.127 3.384 7.491 7.511 7.491zM899.19 172.001h-786.043v436.28h786.033v-436.28h0.010zM546.135 749.522h-79.928c-4.68 0-8.509-3.814-8.509-8.515v-114.862c0-4.705 3.804-8.504 8.509-8.504h79.928c4.7 0 8.494 3.799 8.494 8.504v114.877c0 4.685-3.794 8.499-8.494 8.499zM506.465 670.418c-15.964 0-28.908 12.928-28.908 28.913 0 15.969 12.948 28.913 28.908 28.913 15.985 0 28.913-12.943 28.913-28.913 0.015-15.964-12.928-28.913-28.913-28.913zM266.706 401.388c2.949-22.922 12.467-30.228 12.467-30.228l-0.205-21.571 31.575-80.471 32.532 79.048-0.225 22.989c0 0 9.503 7.311 12.472 30.228 5.949-1.71 12.196 8.878 12.539 14.459 0.343 5.371-0.829 20.332-8.064 18.811 1.475 11.233 2.55 21.356 2.028 26.685-1.874 19.564-21.171 40.212-50.785 40.212-29.629 0-48.916-20.664-50.785-40.212-0.532-5.35 0.532-15.468 2.028-26.685-7.24 1.521-8.412-13.44-8.069-18.811 0.317-5.571 6.533-16.164 12.493-14.454zM306.79 264.658l-31.462 80.22c-4.132-2.048-12.385-5.929-27.807-12.349-25.411-10.588-51.046-18.012-58.701-29.891-6.84-10.68-4.797-61.932-4.797-61.932h111.534v23.168h18.33l-4.424 1.802-2.673-1.019zM433.193 302.638c-7.649 11.889-33.306 19.302-58.701 29.891-14.858 6.19-23.086 9.989-27.351 12.129l-33.26-80.778h10.563v-23.168h113.531c0.015 0 2.074 51.246-4.782 61.926z" />
<glyph unicode="&#xe604;" d="M407.521 761.492h-220.052c-20.147 0-36.675-16.507-36.675-36.675v-220.037c0-20.168 16.527-36.695 36.675-36.695h220.052c20.193 0 36.68 16.527 36.68 36.695v220.037c-0.015 20.168-16.481 36.675-36.68 36.675zM256.62 542.945h-31.176v100.28h31.176v-100.28zM240.819 655.488c-9.856 0-16.195 6.994-16.195 15.596 0 8.812 6.564 15.585 16.599 15.585s16.195-6.789 16.415-15.585c-0.020-8.602-6.374-15.596-16.819-15.596zM370.391 542.945h-31.171v55.557c0 12.918-4.516 21.724-15.8 21.724-8.622 0-13.711-5.924-15.985-11.668-0.819-2.043-1.044-4.91-1.044-7.788v-57.82h-31.15v68.285c0 12.483-0.41 22.948-0.814 31.99h27.064l1.423-13.942h0.62c4.086 6.579 14.141 16.205 30.95 16.205 20.521 0 35.886-13.752 35.886-43.264v-59.274h0.020zM828.682 820.009h-267.238c-24.509 0-44.549-20.055-44.549-44.534v-267.274c0-24.494 20.040-44.534 44.549-44.534h135.148v127.775h-42.65v55.67h42.65v27.884c0 42.972 31.729 76.657 72.248 76.657h39.352v-62.848h-35.2c-9.242 0-11.919-5.294-11.919-12.585v-29.092h47.089v-55.67h-47.089v-127.77h67.599c24.499 0 44.539 20.055 44.539 44.534v267.233c0 24.494-19.999 44.554-44.529 44.554zM368.927 220.191c-1.613 0-2.749-0.399-3.456-1.198-0.707-0.829-1.060-2.161-1.060-4.019v-3.891h8.904v3.891c0 1.859-0.374 3.19-1.080 4.019-0.671 0.799-1.766 1.198-3.308 1.198zM331.827 220.37c-0.727 0-1.434-0.138-2.14-0.43-0.696-0.292-1.403-0.748-2.079-1.362v-27.331c0.84-0.722 1.613-1.249 2.376-1.592 0.799-0.328 1.582-0.451 2.452-0.451 1.234 0 2.156 0.302 2.739 0.922 0.573 0.64 0.85 1.669 0.85 3.118v22.508c0 1.521-0.353 2.688-1.080 3.451-0.763 0.768-1.787 1.167-3.118 1.167zM309.55 324.378c-1.521 0-2.801-0.379-3.763-1.111-0.988-0.742-1.434-1.741-1.434-2.918v-30.198c0-1.531 0.41-2.708 1.336-3.523 0.901-0.84 2.176-1.239 3.866-1.239 1.756 0 3.103 0.399 4.132 1.27 1.004 0.84 1.49 2.002 1.49 3.492v30.198c0 1.178-0.497 2.181-1.546 2.918-1.029 0.753-2.381 1.111-4.081 1.111zM411.602 397h-195.63c-17.94 0-32.599-14.669-32.599-32.599v-195.651c0-17.9 14.659-32.568 32.599-32.568h195.615c17.935 0 32.604 14.669 32.604 32.568v195.651c-0.005 17.93-14.674 32.599-32.589 32.599zM258.289 352.302l9.277-30.019h0.911l8.863 30.019h14.556l-16.655-43.971v-31.181h-14.331v29.809l-17.065 45.338h14.444zM267.085 182.031h-11.361v52.029h-11.745v9.472h34.893v-9.472h-11.786v-52.029zM307.564 182.031h-10.132v4.982c-1.838-1.828-3.779-3.22-5.801-4.178-1.992-0.942-3.973-1.428-5.837-1.428-2.36 0-4.132 0.671-5.284 1.981-1.172 1.341-1.777 3.369-1.777 6.021v38.159h10.097v-34.401c0-1.070 0.195-1.828 0.609-2.319 0.435-0.461 1.132-0.732 2.053-0.732 0.758 0 1.69 0.348 2.821 0.998 1.137 0.62 2.161 1.418 3.103 2.401v34.048h10.127v-45.532h0.020zM296.223 279.972c-3.328 2.77-4.997 6.508-4.997 11.228v28.739c0 4.291 1.705 7.711 5.125 10.25 3.42 2.54 8.028 3.82 13.798 3.82 5.248 0 9.605-1.352 12.948-4.040 3.348-2.678 5.012-6.129 5.012-10.348v-28.641c0-4.751-1.628-8.458-4.936-11.182-3.297-2.719-7.834-4.050-13.614-4.050-5.53 0.020-9.984 1.403-13.338 4.224zM346.435 191.35c0-3.18-0.845-5.652-2.406-7.352-1.562-1.69-3.866-2.529-6.866-2.529-1.951 0-3.707 0.348-5.263 0.998-1.546 0.64-2.98 1.669-4.296 3.011v-3.461h-10.22v61.501h10.199v-19.61c1.357 1.372 2.785 2.432 4.316 3.159 1.556 0.691 3.082 1.070 4.644 1.070 3.195 0 5.658-0.978 7.327-2.862 1.669-1.951 2.565-4.721 2.565-8.392v-25.533zM341.187 278.861c-1.505 1.669-2.232 4.142-2.232 7.398v46.321h12.718v-42.47c0-1.311 0.282-2.248 0.799-2.831 0.543-0.599 1.413-0.911 2.627-0.911 0.911 0 2.115 0.399 3.512 1.172 1.454 0.778 2.734 1.772 3.958 2.99v42.051h12.713v-55.429h-12.713v6.129c-2.345-2.243-4.792-3.948-7.347-5.13-2.54-1.178-5.002-1.761-7.363-1.761-2.949 0-5.161 0.804-6.671 2.473zM383.739 203.448h-19.328v-7.839c0-2.36 0.333-3.988 1.009-4.9 0.64-0.901 1.792-1.382 3.41-1.382 1.659 0 2.811 0.399 3.507 1.162 0.64 0.758 0.993 2.488 0.993 5.12v3.118h10.414v-4.040c0-4.588-1.28-8.059-3.794-10.378-2.545-2.33-6.318-3.512-11.336-3.512-4.536 0-8.090 1.229-10.675 3.702-2.616 2.468-3.901 5.852-3.901 10.168v20.797c0 3.891 1.434 7.081 4.26 9.508 2.883 2.468 6.579 3.712 11.064 3.712 4.628 0 8.177-1.172 10.644-3.41 2.493-2.258 3.738-5.56 3.738-9.81v-12.017zM797.768 397h-240.758c-22.077 0-40.12-18.048-40.12-40.131v-240.758c0-22.088 18.038-40.12 40.12-40.12h240.758c22.072 0 40.12 18.048 40.12 40.12v240.758c0 22.062-18.079 40.131-40.12 40.131zM733.148 154.88c-7.772-3.702-14.74-6.282-21.018-7.772s-13.030-2.232-20.342-2.232c-8.269 0-15.601 1.070-21.99 3.18-6.349 2.099-11.761 5.11-16.241 9.032-4.511 3.932-7.608 8.079-9.349 12.488-1.741 4.429-2.58 10.788-2.58 19.169v64.261h-20.040v25.938c7.101 2.34 13.21 5.678 18.278 10.071 5.059 4.362 9.129 9.62 12.18 15.718 3.082 6.098 5.192 13.901 6.349 23.342h25.738v-46.28h42.988v-28.749h-42.988v-46.981c0-10.619 0.558-17.428 1.71-20.48 1.091-3.011 3.159-5.412 6.17-7.219 4.029-2.432 8.602-3.671 13.763-3.671 9.129 0 18.258 3.052 27.331 9.078v-28.902h0.041z" />
<glyph unicode="&#xe605;" d="M857.221 254.444c-21.612 33.628-94.1 54.569-165.868 84.465-71.706 29.901-88.724 40.3-88.724 40.3l-0.655 68.833c0 0 26.88 20.654 35.21 85.437 16.794-4.864 34.463 25.078 35.436 40.852 0.901 15.16-2.386 57.395-22.83 53.13 4.147 31.693 7.204 60.308 5.719 75.438-5.284 55.26-59.796 113.618-143.519 113.618-83.717 0-138.184-58.358-143.508-113.618-1.475-15.15 1.567-43.745 5.74-75.438-20.475 4.265-23.752-37.934-22.83-53.13 0.968-15.77 18.606-45.737 35.436-40.852 8.351-64.804 35.277-85.437 35.277-85.437l-0.722-68.833c0 0-16.983-10.399-88.781-40.3-71.757-29.896-144.215-50.836-165.837-84.465-19.292-30.167-13.532-174.966-13.532-174.966h270.705l78.111 138.547 78.126-138.547h290.555c0.046 0 5.811 144.804-13.507 174.966zM502.047 218.025l-46.198 46.188 46.198 46.193 46.208-46.193-46.208-46.188z" />
<glyph unicode="&#xe606;" d="M167.68 205.937h0.251l284.38 63.724-284.216 100.813 287.652-24.417-210.903 154.388 241.807-88.218-232.525 294.502 294.41-230.932-88.453 239.887 146.857-203.802-13.082 280.632 92.088-281.492 68.649 281.825h-586.916v-586.911zM754.56 792.832v-587.274h-586.88v-102.405h688.64v689.679h-101.76z" />
<glyph unicode="&#xe607;" d="M495.094 524.708c0-17.050 13.788-30.853 30.838-30.853 17.044 0 30.828 13.804 30.828 30.853 0 17.029-13.783 30.853-30.828 30.853-17.044 0.005-30.838-13.819-30.838-30.853zM374.303 524.708c0-17.050 13.809-30.853 30.838-30.853 17.039 0 30.848 13.804 30.848 30.853 0 17.029-13.793 30.853-30.848 30.853-17.024 0.005-30.838-13.819-30.838-30.853zM439.88 349.455c-12.022-1.311-24.305-2.012-36.797-2.012-40.243 0-78.792 6.932-114.58 20.582l-9.948 3.789-85.028-40.996 31.063 71.020-13.64 11.894c-39.071 34.063-60.59 77.297-60.59 121.692 0 103.654 113.367 187.986 252.723 187.986 138.342 0 251.059-83.154 252.636-185.805 12.785 1.556 25.887 2.376 39.214 2.376 3.384 0 6.738-0.087 10.061-0.22-2.97 128.876-137.226 233.021-301.911 233.021-166.579 0-302.085-106.481-302.085-237.358 0-53.391 22.62-104.781 64.108-146.391l-70.282-160.594 186.204 89.764c38.508-13.358 79.519-20.106 122.035-20.106 14.008 0 27.802 0.804 41.303 2.253-3.154 12.595-4.849 25.59-4.849 38.881 0.026 3.451 0.128 6.835 0.364 10.225zM929.172 339.236c0 99.185-104.873 179.589-234.24 179.589-129.388 0-234.235-80.404-234.235-179.589 0-99.195 104.863-179.579 234.235-179.579 37.448 0 72.806 6.774 104.177 18.76l114.432-55.199-42.675 97.541c36.301 31.611 58.307 73.083 58.307 118.477zM581.432 304.932c-15.585 0-28.196 12.631-28.196 28.211 0 15.585 12.611 28.196 28.196 28.196 15.616 0 28.227-12.611 28.227-28.196-0.005-15.585-12.616-28.211-28.227-28.211zM691.932 304.932c-15.585 0-28.196 12.631-28.196 28.211 0 15.585 12.611 28.196 28.196 28.196 15.58 0 28.191-12.611 28.191-28.196-0.005-15.585-12.611-28.211-28.191-28.211zM802.412 304.932c-15.58 0-28.211 12.631-28.211 28.211 0 15.585 12.631 28.196 28.211 28.196s28.211-12.611 28.211-28.196c-0.005-15.585-12.631-28.211-28.211-28.211zM253.517 524.708c0-17.050 13.809-30.853 30.838-30.853 17.024 0 30.848 13.804 30.848 30.853 0 17.029-13.809 30.853-30.848 30.853-17.029 0.005-30.838-13.819-30.838-30.853z" />
<glyph unicode="&#xe608;" d="M775.491 582.477h-567.885v-34.729h567.885v34.729zM605.153 303.744h170.368v202.168h-170.368v-202.168zM393.339 505.912h-185.733v-24.98h185.733v24.98zM559.713 446.848h-352.108v-24.98h352.108v24.98zM559.713 387.789h-352.108v-24.97h352.108v24.97zM559.713 328.74h-352.108v-24.996h352.108v24.996zM775.491 269.681h-567.885v-24.996h567.885v24.996zM775.491 210.621h-567.885v-25.016h567.885v25.016zM338.852 665.917l49.331-55.055h5.161v99.354h-19.625v-55.076l-49.198 57.262h-5.187v-99.507h19.482v53.023h0.036zM465.736 632.402h-30.971v19.476h25.636v19.502h-25.636v19.482h29.322v19.482h-48.804v-97.444h50.452v19.502zM517.238 610.867l17.715 43.612 17.874-43.218h3.533l39.793 99.087h-21.955l-19.645-49.756-19.062 48.809h-0.947l-19.082-48.809-19.635 49.756h-21.919l39.936-99.497h3.384v0.015zM633.774 631.854c-4.48-0.41-16.64-0.143-27.781 7.777l-2.478-20.444c13.22-6.825 25.344-7.501 30.807-7.091 18.278 0.957 29.44 13.353 29.44 29.588 0 15.529-13.071 24.248-28.201 29.85-5.612 1.91-10.394 4.362-10.926 9.805-0.399 5.443 2.729 10.476 9.687 10.906 3.026 0.123 9.139 0.266 19.922-4.106l2.442 18.816c-12.564 4.362-19.231 4.362-24.289 4.081-16.2-0.819-27.51-13.343-27.51-29.716 0-16.374 13.599-24.131 28.877-29.722 5.463-1.9 9.708-4.362 10.086-9.928 0.553-5.315-4.362-9.426-10.076-9.815zM881.664 712.417l-20.9-549.709c-0.077-0.952-0.84-1.674-1.787-1.638-0.947 0-1.674 0.763-1.674 1.731v615.721h-736.015v-591.421c0-38.451 31.171-69.622 69.612-69.622h640.189c39.542 0 71.619 32.082 71.619 71.624v523.315h-21.043zM830.029 180.035c0-17.004-13.778-30.766-30.766-30.766h-615.429c-16.983 0-30.74 13.763-30.74 30.766v566.666h676.956v-566.666h-0.020z" />
<glyph unicode="&#xe609;" d="M137.754 394.496l54.81-13.578 41.252 64.748-78.403 19.451c-19.615 4.895-39.419-7.020-44.298-26.527-4.869-19.497 7.020-39.235 26.639-44.093zM852.92 384.015l-179.374-161.475-210.934 163.226c-4.009 3.098-8.643 5.34-13.609 6.569l-28.073 6.963-41.272-64.778 44.18-10.957 229.038-177.224c6.636-5.1 14.546-7.654 22.42-7.654 8.827 0 17.577 3.174 24.54 9.405l202.086 181.965c14.986 13.455 16.133 36.46 2.632 51.379-13.537 14.874-36.649 16.072-51.635 2.58zM459.1 561.347l196.434-125.783c16.589-10.578 38.61-6.216 49.838 9.923l202.127 291.118c11.464 16.543 7.311 39.219-9.293 50.621-16.625 11.448-39.363 7.301-50.847-9.216l-182.036-262.185-197.658 126.536c-8.177 5.222-18.13 6.979-27.628 4.92-9.498-2.084-17.777-7.854-22.979-16.031l-301.338-473.057c-10.829-16.952-5.786-39.444 11.274-50.202 6.052-3.85 12.841-5.688 19.543-5.688 12.093 0 23.916 5.98 30.879 16.901l281.682 442.143z" />
<glyph unicode="&#xe60a;" d="M873.871 221.844c0 0-1.004 97.336-6.948 107.382-8.852 15.048-29.445 25.385-67.671 41.324-38.113 15.939-50.294 29.384-50.294 58.158 0 17.285 11.628 11.648 16.727 43.274 2.115 13.128 12.416 0.215 14.372 30.188 0 11.935-5.612 14.909-5.612 14.909s2.852 17.659 3.958 31.258c1.393 16.963-8.525 60.749-61.44 60.749-52.91 0-62.828-43.786-61.435-60.749 1.111-13.599 3.942-31.258 3.942-31.258s-5.591-2.975-5.591-14.909c1.956-29.972 12.216-17.060 14.351-30.188 5.105-31.642 16.748-25.989 16.748-43.274 0-19.548-5.658-32.036-21.238-43.044 83.272-41.697 94.408-50.186 94.408-87.444v-76.411l115.732 0.036zM993.556 262.968c0 0-0.748 74.424-5.299 82.125-6.769 11.464-22.533 19.364-51.748 31.58-29.138 12.18-38.456 22.472-38.456 44.467 0 13.22 8.883 8.893 12.79 33.085 1.608 10.056 9.492 0.184 10.998 23.081 0 9.134-4.301 11.412-4.301 11.412s2.186 13.496 3.046 23.91c1.034 12.948-6.518 46.408-46.986 46.408-40.458 0-48.020-33.459-46.981-46.408 0.86-10.394 3.011-23.91 3.011-23.91s-4.265-2.273-4.265-11.412c1.505-22.897 9.364-13.025 10.993-23.081 3.907-24.177 12.79-19.866 12.79-33.085 0-14.945-4.316-24.499-16.261-32.901 63.688-31.877 72.218-38.339 72.218-66.862v-58.409h88.453zM118.917 262.968v58.414c0 28.518 8.54 34.985 72.212 66.862-11.919 8.402-16.276 17.956-16.276 32.901 0 13.22 8.909 8.893 12.826 33.085 1.613 10.056 9.462 0.184 10.967 23.081 0 9.134-4.255 11.412-4.255 11.412s2.166 13.496 3.011 23.91c1.080 12.948-6.513 46.408-46.976 46.408-40.463 0-48.041-33.459-46.976-46.408 0.845-10.394 3.011-23.91 3.011-23.91s-4.27-2.273-4.27-11.412c1.505-22.897 9.375-13.025 10.988-23.081 3.927-24.177 12.82-19.866 12.82-33.085 0-21.996-9.313-32.287-38.477-44.467-29.245-12.216-44.979-20.116-51.732-31.58-4.552-7.7-5.34-82.125-5.34-82.125l88.468-0.005zM266.209 221.844v76.416c0 37.253 11.151 45.747 94.438 87.424-15.631 11.003-21.268 23.475-21.268 43.049 0 17.275 11.643 11.643 16.763 43.264 2.125 13.128 12.396 0.215 14.356 30.188 0 11.94-5.617 14.915-5.617 14.915s2.852 17.659 3.968 31.252c1.372 16.963-8.525 60.749-61.445 60.749-52.915 0-62.833-43.786-61.466-60.749 1.137-13.594 3.963-31.252 3.963-31.252s-5.596-2.975-5.596-14.915c1.94-29.972 12.232-17.060 14.367-30.188 5.094-31.642 16.722-25.989 16.722-43.264 0-28.785-12.18-42.225-50.289-58.163-38.241-15.959-58.839-26.281-67.661-41.324-5.944-10.066-6.973-107.402-6.973-107.402h115.738zM653.158 354.248c-63.37 23.091-83.61 42.568-83.61 84.255 0 25.027 19.343 16.855 27.837 62.694 3.523 19.021 20.634 0.328 23.89 43.73 0 17.295-9.308 21.601-9.308 21.601s4.726 25.6 6.569 45.327c2.314 24.556-14.167 87.982-102.103 87.982-87.91 0-104.402-63.427-102.088-87.982 1.874-19.702 6.584-45.327 6.584-45.327s-9.313-4.291-9.313-21.601c3.261-43.402 20.342-24.709 23.859-43.73 8.489-45.839 27.843-37.668 27.843-62.694 0-41.687-20.244-61.164-83.584-84.255-63.549-23.142-73.999-46.787-73.999-62.868s0-95.222 0-95.222h416.287c0 0 0 79.135 0 95.222s-5.315 39.731-68.864 62.868zM721.188 609.106c0 0-34.499 39.414-74.301-24.515-39.767-63.913 13.256-142.73-9.815-166.723-23.035-23.992 170.557-10.291 170.557-10.291s-19.128 19.318-19.128 64.42c0 45.107 29.414 74.998-13.757 121.81-43.162 46.792-53.555 15.299-53.555 15.299zM128.225 559.181c0 0-13.86 21.146-28.687-26.547-14.787-47.503 13.65-101.222-3.226-125.875-16.691-24.417 107.94-5.135 107.94-5.135s-6.369 37.284-0.512 66.637c5.663 28.442 10.209 56.545-4.004 80.778-21.345 36.408-71.511 10.143-71.511 10.143z" />
<glyph unicode="&#xe60b;" d="M769.428 15.744c15.677-15.652 15.831-41.196 0.317-57.047-15.478-15.841-40.832-15.969-56.499-0.302l-458.716 458.634c-15.657 15.688-15.764 41.211-0.271 57.032l454.047 463.258c15.544 15.79 40.786 15.974 56.453 0.271 15.677-15.683 15.836-41.221 0.323-57.042l-414.034-434.493 418.381-430.31z" />
<glyph unicode="&#xe60c;" d="M254.566 880.256c-15.677 15.652-15.831 41.196-0.317 57.047 15.478 15.841 40.832 15.969 56.499 0.302l458.721-458.634c15.662-15.688 15.764-41.211 0.271-57.032l-454.052-463.258c-15.544-15.79-40.786-15.969-56.453-0.271-15.677 15.683-15.836 41.226-0.323 57.047l414.049 434.493-418.396 430.305z" />
<glyph unicode="&#xe60d;" d="M555.325 590.546c-5.699 1.807-11.971-1.306-13.885-7.081l-45.67-142.049-59.412 96.323-64.942-102.047-69.084 106.107-42.767-122.819c-2.002-5.76 1.009-12.037 6.733-14.013 5.724-2.099 12.017 0.978 13.993 6.723l28.052 80.522 63.299-97.234 64.481 101.315 65.966-107.039 60.334 187.443c1.869 5.811-1.306 12.022-7.096 13.85zM842.122 315.899v440.366h-264.095v44.037h-88.049v-44.037h-308.101v-440.361h308.127v-83.569l-174.141-136.632h43.448l130.688 89.969v-1.874h88.038v1.874l130.668-89.969h43.438l-174.106 136.632v83.569h264.084zM225.9 359.926v297.303h572.237v-297.303h-572.237zM738.355 544.205c0 32-25.943 57.943-57.892 57.943-31.969 0-57.871-25.943-57.871-57.943 0-31.939 25.902-57.836 57.871-57.836 31.949 0 57.892 25.897 57.892 57.836zM622.049 403.958h44.006v44.058h-44.006v-44.058zM710.103 403.958h44.027v44.058h-44.027v-44.058z" />
<glyph unicode="&#xe60e;" d="M842.301 208.655l-165.407 165.417c24.893 40.991 39.26 89.108 39.26 140.6 0 149.571-129.587 279.153-279.168 279.153-149.555 0-270.812-121.242-270.812-270.828s129.582-279.163 279.142-279.163c49.741 0 96.297 13.46 136.325 36.884l166.333-166.333c16.338-16.282 42.67-16.282 58.957 0l41.206 41.231c16.333 16.312 10.419 36.777-5.837 53.038zM249.544 522.977c0 103.542 83.953 187.494 187.469 187.494 103.588 0 195.85-92.242 195.85-195.799 0-103.567-83.948-187.51-187.52-187.51-103.516 0-195.799 92.273-195.799 195.814z" />
<glyph unicode="&#xe60f;" d="M891.986 683.802c-27.971-12.411-58.004-20.792-89.533-24.576 32.2 19.297 56.883 49.874 68.531 86.308-30.136-17.889-63.493-30.863-99.016-37.847-28.447 30.31-68.941 49.244-113.812 49.244-86.072 0-155.894-69.806-155.894-155.976 0-12.227 1.367-24.125 4.040-35.553-129.582 6.508-244.47 68.603-321.347 162.99-13.435-23.040-21.135-49.853-21.135-78.433 0-54.118 27.535-101.878 69.376-129.828-25.564 0.799-49.603 7.808-70.646 19.492 0-0.64 0-1.285 0-1.956 0-75.592 53.734-138.609 125.061-152.945-13.071-3.569-26.849-5.458-41.068-5.458-10.056 0-19.799 0.978-29.348 2.801 19.85-61.972 77.43-107.080 145.654-108.293-53.366-41.861-120.596-66.801-193.623-66.801-12.611 0-25.021 0.748-37.207 2.186 69.012-44.273 150.958-70.083 239.002-70.083 286.771 0 443.592 237.691 443.592 443.817 0 6.748-0.133 13.496-0.43 20.183 30.459 21.975 56.914 49.418 77.804 80.727z" />
<glyph unicode="&#xe610;" d="M837.888 666.476h-699.069c-48.056 0-87.393-39.332-87.393-87.388v-262.149c0-48.077 39.337-87.409 87.393-87.409h699.069c48.082 0 87.419 39.337 87.419 87.409v262.149c0.005 48.056-39.337 87.388-87.419 87.388zM837.888 316.933h-699.069v262.154h699.069v-262.154zM575.739 534.528h-174.746v-173.046h174.756v173.046h-0.010zM794.22 534.528h-174.792v-173.046h174.792v173.046zM357.279 534.528h-174.766v-173.046h174.761l0.005 173.046zM925.768 518.226c25.841 0 46.812-20.966 46.812-46.822v-46.797c0-25.871-20.972-46.833-46.812-46.833-25.851 0-46.822 20.966-46.822 46.833v46.797c0.005 25.856 20.946 46.822 46.822 46.822z" />
<glyph unicode="&#xe611;" d="M738.678 736.471c-132.669 104.504-320.701 104.504-453.345 0l226.673-226.673 226.673 226.673zM803.092 671.186l-260.173-260.188c-17.075-17.039-44.728-17.039-61.793 0l-260.178 260.188c-110.587-143.877-100.157-350.828 31.606-482.565 143.299-143.268 375.603-143.319 518.907 0 131.738 131.738 142.167 338.719 31.631 482.565z" />
<glyph unicode="&#xe612;" d="M170.168 758.702c0 40.96 29.558 58.721 65.725 39.444l590.833-315.126c36.147-19.277 36.147-50.796 0-70.072l-590.833-315.1c-36.147-19.261-65.725-1.551-65.725 39.444v621.409z" />
<glyph unicode="&#xe613;" d="M11.812 612.147l120.172-448.481 448.497 120.182-120.177 448.486-448.492-120.187zM180.536 206.735l-28.032-7.521-7.526 28.027 28.032 7.521 7.526-28.027zM157.998 290.821l-28.027-7.521-7.511 28.027 28.027 7.521 7.511-28.027zM135.47 374.912l-28.027-7.501-7.526 28.017 28.027 7.516 7.526-28.032zM112.942 459.008l-28.027-7.511-7.516 28.027 28.027 7.526 7.516-28.042zM90.399 543.109l-28.027-7.532-7.506 28.027 28.027 7.516 7.506-28.012zM481.352 317.373l-280.3-75.105-37.54 140.15 280.284 75.105 37.555-140.15zM428.774 513.597l-280.3-75.116-37.555 140.145 280.3 75.105 37.555-140.134zM544.922 304.369l-28.032-7.526-7.511 28.027 28.027 7.537 7.516-28.037zM522.394 388.465l-28.037-7.511-7.516 28.022 28.027 7.532 7.526-28.042zM499.866 472.545l-28.027-7.516-7.501 28.032 28.027 7.511 7.501-28.027zM477.332 556.626l-28.027-7.496-7.516 28.027 28.032 7.516 7.511-28.047zM454.799 640.727l-28.032-7.516-7.506 28.027 28.027 7.506 7.511-28.017zM583.839 722.688l-44.262-165.212 28.856-103.066 54.605 200.381 321.239-86.077-64.538-240.947-298.214 79.913 17.372-62.060 320.041-85.734 93.256 348.027-428.355 114.775zM696.438 527.636c22.17-5.944 44.943 7.224 50.908 29.435 5.939 22.19-7.224 44.928-29.389 50.883-22.2 5.934-44.974-7.168-50.929-29.358-5.949-22.221 7.219-45.020 29.409-50.959zM636.529 464.681l-44.093-31.222 267.709-71.736 26.004 97.116-21.791 88.253-90.813-108.902-24.658 43.781c0 0-51.645-4.859-74.312-27.479-21.089 19.994-38.047 10.189-38.047 10.189z" />
<glyph unicode="&#xe614;" d="M785.428 799.575h-85.924c-21.606 0-31.283-17.495-31.283-39.071v-664.084h156.298v664.11c0 21.576-17.531 39.045-39.091 39.045zM551.050 651.136h-85.924c-21.606 0-31.273-17.485-31.273-39.066v-515.651h156.242v515.651c-0.005 21.581-17.469 39.066-39.045 39.066zM316.672 549.571h-85.914c-21.617 0-31.273-17.475-31.273-39.055v-414.095h156.257v414.095c-0.010 21.581-17.485 39.055-39.071 39.055z" />
<glyph unicode="&#xe615;" d="M515.471 629.135c1.587 8.888-4.291 17.413-13.194 19.041-8.888 1.628-17.388-4.27-19.041-13.158-1.608-8.909 4.291-17.408 13.158-19.041 8.929-1.628 17.444 4.275 19.077 13.158zM522.542 648.735c-1.628-8.888 4.27-17.423 13.148-19.041 8.893-1.633 17.418 4.27 19.052 13.179 1.618 8.888-4.27 17.388-13.169 19.041-8.909 1.618-17.428-4.275-19.031-13.179zM581.571 568.115c8.899-1.618 17.398 4.28 19.052 13.158 1.608 8.888-4.291 17.418-13.169 19.041-8.899 1.628-17.382-4.27-19.031-13.158-1.623-8.909 4.27-17.413 13.148-19.041zM652.232 764.974c-1.608-8.909 4.27-17.413 13.169-19.041 8.888-1.628 17.388 4.27 19.041 13.158 1.608 8.904-4.28 17.408-13.169 19.041-8.893 1.628-17.434-4.27-19.041-13.158zM388.818 801.951c8.888-1.633 17.408 4.27 19.041 13.158 1.608 8.904-4.27 17.408-13.158 19.057-8.909 1.608-17.393-4.291-19.041-13.184-1.628-8.888 4.25-17.423 13.158-19.031zM410.788 831.217c8.909-1.613 17.408 4.291 19.041 13.158 1.603 8.888-4.27 17.413-13.179 19.041-8.888 1.628-17.393-4.27-19.041-13.158-1.633-8.888 4.27-17.413 13.179-19.041zM445.138 849.705c8.909-1.628 17.434 4.27 19.057 13.158 1.633 8.888-4.285 17.408-13.179 19.041-8.888 1.628-17.393-4.27-19.016-13.179-1.608-8.868 4.27-17.388 13.138-19.021zM485.939 858.926c8.888-1.608 17.418 4.291 19.041 13.179 1.608 8.909-4.296 17.413-13.158 19.041-8.909 1.613-17.408-4.285-19.057-13.189-1.603-8.878 4.265-17.403 13.174-19.031zM525.988 863.969c8.899-1.628 17.408 4.27 19.031 13.158 1.628 8.909-4.285 17.408-13.169 19.041-8.868 1.618-17.377-4.27-19.046-13.174-1.628-8.893 4.291-17.423 13.184-19.026zM565.478 855.685c8.899-1.628 17.398 4.291 19.031 13.179 1.628 8.909-4.27 17.413-13.148 19.041-8.899 1.613-17.398-4.27-19.046-13.179-1.628-8.888 4.285-17.413 13.164-19.041zM601.201 838.38c8.899-1.628 17.439 4.27 19.041 13.179 1.618 8.888-4.28 17.408-13.158 19.036-8.919 1.628-17.418-4.27-19.052-13.179-1.613-8.888 4.27-17.413 13.169-19.036zM631.951 814.464c8.888-1.628 17.362 4.291 19.021 13.158 1.628 8.888-4.291 17.408-13.169 19.041-8.919 1.618-17.382-4.27-19-13.158-1.684-8.914 4.244-17.444 13.148-19.041zM642.079 804.408c-1.628-8.888 4.27-17.408 13.138-19.036 8.899-1.628 17.418 4.27 19.052 13.158 1.628 8.888-4.27 17.408-13.169 19.036-8.868 1.633-17.398-4.265-19.021-13.158zM384.41 762.875c8.909-1.628 17.393 4.291 19.041 13.179 1.628 8.888-4.27 17.388-13.158 19.016-8.909 1.633-17.408-4.27-19.036-13.158-1.638-8.888 4.285-17.428 13.153-19.036zM374.646 725.729c8.909-1.597 17.408 4.27 19.041 13.184 1.623 8.919-4.27 17.418-13.158 19.041-8.888 1.628-17.393-4.27-19.041-13.158-1.649-8.893 4.27-17.454 13.158-19.067zM403 701.251c1.628 8.878-4.27 17.408-13.158 19.031-8.888 1.628-17.372-4.27-19.021-13.158-1.649-8.888 4.27-17.408 13.158-19.041 8.914-1.618 17.408 4.28 19.021 13.169zM392.294 650.516c8.919-1.623 17.398 4.27 19.021 13.164 1.608 8.909-4.27 17.408-13.158 19.041-8.909 1.608-17.388-4.27-19.041-13.164-1.623-8.888 4.27-17.408 13.179-19.041zM401.183 612.992c8.909-1.623 17.393 4.27 19.041 13.179 1.608 8.883-4.291 17.413-13.158 19.041-8.909 1.623-17.428-4.27-19.057-13.164-1.603-8.909 4.285-17.434 13.174-19.057zM405.274 598.508c-1.608-8.888 4.27-17.388 13.158-19.036 8.888-1.628 17.393 4.27 19.041 13.179 1.628 8.888-4.27 17.413-13.158 19.041-8.888 1.623-17.388-4.275-19.041-13.184zM493.568 600.545c-0.763 6.973-6.062 12.933-13.322 14.264-6.508 1.188-12.831-1.674-16.394-6.753 10.030-1.879 19.973-4.383 29.716-7.511zM591.022 534.298c2.048-1.664 4.552-2.826 7.322-3.359 8.909-1.603 17.398 4.27 19.041 13.179 1.608 8.888-4.28 17.413-13.169 19.021-8.888 1.628-17.398-4.27-19.052-13.169-0.369-2.089-0.328-4.142 0.092-6.118 2.115-3.046 4.024-6.267 5.765-9.554zM615.762 523.433c-7.091 1.28-13.921-2.171-17.27-8.131 1.792-6.538 2.898-13.235 3.18-19.953 2.212-2.058 5.012-3.528 8.182-4.111 8.899-1.613 17.408 4.27 19.031 13.158 1.664 8.888-4.244 17.434-13.123 19.036zM595.758 431.58c0.691 3.758 0.031 7.424-1.592 10.557l-3.64-19.855c2.627 2.36 4.557 5.55 5.233 9.298zM618.798 465.731c1.618 8.909-4.25 17.413-13.148 19.041-1.398 0.261-2.79 0.333-4.142 0.215-0.2-2.412-0.481-4.813-0.87-7.214l-4.388-24.131c1.111-0.461 2.289-0.85 3.538-1.070 8.832-1.633 17.372 4.275 19.011 13.158zM783.98 126.945l-59.909 310.2v0.082c-5.699 27.75-27.868 52.055-55.101 60.457l-0.492 0.148-0.461 0.143c-10.168 2.575-20.301 4.593-30.341 5.98-0.051-0.369-0.092-0.737-0.169-1.106-0.722-3.958-2.34-7.516-4.649-10.557 10.639-1.321 21.34-3.379 32.092-6.139l0.251-0.036 0.2-0.061c23.132-7.142 41.923-27.745 46.792-51.277l59.832-310.042c4.219-23.035-6.241-51.42-24.279-66.063l-0.189-0.154c-57.221-43.52-129.828-57.528-199.148-38.477l-0.113 0.041-0.123 0.041c-22.226 6.871-42.486 29.358-47.145 52.321l-5.883 30.444c-3.763-1.946-7.608-3.574-11.428-4.823l5.412-28.047c5.55-27.428 28.902-53.309 55.465-61.517l0.317-0.102 0.282-0.082c73.052-20.040 149.468-5.325 209.751 40.484l0.532 0.415c21.514 17.521 33.505 50.176 28.503 77.727zM544.010 166.692c-2.842-14.776-10.47-29.793-21.489-42.271-5.78-6.548-12.375-12.268-19.466-16.886l6.415-33.372c3.912-19.067 21.253-39.547 41.19-45.727 66.739-18.355 136.422-4.884 191.56 36.992 16.251 13.123 24.709 38.589 21.202 57.764l-59.771 309.816c-4.070 19.661-20.291 38.395-40.878 44.739-13.302 3.4-26.46 5.704-39.46 6.83-0.338-0.138-0.64-0.271-0.978-0.425 4.332-5.453 6.359-12.657 5.012-19.988-2.171-11.981-12.6-20.444-24.34-20.567 1.659-4.321 2.13-9.037 1.3-13.563-0.998-5.499-3.84-10.557-8.028-14.254l-8.289-7.357-43.981-241.731zM535.47 168.361l56.591 310.886c4.69 27.96-7.148 58.634-29.481 76.314l-0.389 0.317-0.451 0.287c-31.36 22.456-65.137 37.084-100.434 43.489-5.222 0.952-10.465 1.705-15.724 2.314 0.916-3.456 1.126-7.158 0.425-10.88-0.077-0.476-0.154-0.922-0.276-1.388 4.511-0.532 8.95-1.193 13.399-1.987 33.48-6.108 65.669-20.045 95.519-41.436l0.364-0.246c18.964-15.043 29.056-41.068 25.027-64.783l-56.545-310.625c-4.403-22.999-24.433-45.706-46.561-52.792l-0.138-0.082-0.118-0.026c-69.105-19.799-141.834-6.533-199.532 36.296l-0.113 0.102-0.118 0.077c-18.207 14.479-28.938 42.772-24.996 65.828l56.55 310.63c4.618 23.593 23.178 44.401 46.208 51.784l0.215 0.061 0.189 0.041c14.013 3.763 27.986 6.287 41.795 7.608-0.686 3.154-0.814 6.492-0.179 9.892 0.138 0.814 0.348 1.597 0.527 2.376-14.945-1.341-30.080-4.024-45.276-8.095l-0.993-0.307c-27.131-8.684-49.044-33.213-54.456-61.020l-0.036-0.164-56.561-310.758c-4.716-27.571 7.649-60.104 29.43-77.409l0.246-0.215 0.236-0.2c60.805-45.169 137.385-59.090 210.135-38.257l0.328 0.077 0.328 0.118c26.527 8.561 49.587 34.683 54.866 62.172zM317.020 529.044l-56.458-310.451c-3.297-19.174 5.443-44.534 21.796-57.544 55.547-41.277 125.42-53.99 191.969-34.918 19.871 6.349 37.002 27.049 40.673 46.162l56.515 310.441c3.338 19.799-4.982 43.141-21.868 56.504-30.807 22.047-63.749 35.743-98.181 40.95 7.122-4.884 11.412-13.292 10.824-22.221 7.091-4.634 11.121-13.199 9.498-22.067-2.12-11.791-13.45-19.61-25.221-17.475-9.134 1.669-15.892 8.832-17.459 17.434-11.494 3.968-18.708 15.867-16.497 28.17 0.497 2.621 1.352 5.084 2.56 7.301-6.216 1.587-11.341 5.432-14.679 10.476-14.182-1.198-28.559-3.727-43.080-7.608-20.536-6.543-36.526-25.457-40.392-45.153zM440.177 575.647c-8.888 1.628-17.388-4.27-19.011-13.158-1.628-8.888 4.25-17.413 13.138-19.041 8.909-1.608 17.408 4.291 19.041 13.179 1.638 8.868-4.265 17.388-13.169 19.021zM463.227 537.452c0.896 4.854-1.065 9.743-4.946 12.713-2.232-2.258-3.825-5.187-4.47-8.561-0.855-4.777 0.425-9.462 3.19-13 3.195 1.823 5.509 4.982 6.226 8.847zM539.259 594.253c1.628 8.888-4.28 17.413-13.143 19.041-8.899 1.628-17.439-4.27-19.062-13.158-0.261-1.439-0.348-2.872-0.2-4.255 8.837-3.395 17.51-7.316 26.086-11.781 3.226 2.365 5.571 5.908 6.318 10.153zM620.82 679.649c-8.899 1.623-17.388-4.275-19.031-13.158-1.628-8.919 4.291-17.418 13.169-19.041 8.878-1.628 17.382 4.27 19.011 13.158 1.669 8.909-4.25 17.434-13.148 19.041zM659.512 689.633c1.628 8.883-4.25 17.408-13.138 19.036-8.899 1.633-17.408-4.27-19.082-13.158-1.582-8.888 4.342-17.408 13.199-19.031 8.888-1.638 17.439 4.265 19.021 13.153zM680.852 721.28c1.618 8.888-4.25 17.408-13.148 19.041-8.899 1.608-17.398-4.291-19.031-13.179-1.628-8.888 4.291-17.393 13.189-19.021 8.868-1.628 17.398 4.27 18.99 13.158zM550.502 605.179c3.661-0.671 7.281-0.041 10.368 1.541-5.396 4.209-8.899 10.557-9.569 17.495-4.193-2.478-9.114-3.722-14.244-3.4 0.225-7.583 5.704-14.228 13.445-15.636zM601.272 628.163c1.679 2.079 2.888 4.598 3.389 7.404 1.618 8.914-4.27 17.418-13.148 19.046-4.782 0.876-9.421-0.435-12.969-3.18 0.732-0.061 1.439-0.159 2.202-0.287 11.505-2.094 19.753-11.791 20.526-22.984zM573.312 610.386c8.899-1.628 17.439 4.291 19.062 13.158 1.618 8.909-4.311 17.408-13.158 19.036-8.878 1.628-17.418-4.27-19.057-13.158-1.618-8.883 4.291-17.408 13.153-19.036z" />
</font>
</defs>
</svg>
